<svg width="18" height="18" viewBox="0 0 26 26" fill="none" xmlns="http://www.w3.org/2000/svg">
<path d="M15.73 9.75H10.27C10.01 9.75 9.75 10.01 9.75 10.27V15.73C9.75 15.99 10.01 16.25 10.27 16.25H15.73C15.99 16.25 16.25 15.99 16.25 15.73V10.27C16.25 10.01 15.99 9.75 15.73 9.75Z" fill="white"/>
<path d="M24.8301 18.85H19.3701C19.1101 18.85 18.8501 19.11 18.8501 19.37V24.83C18.8501 25.09 19.1101 25.35 19.3701 25.35H24.8301C25.0901 25.35 25.3501 25.09 25.3501 24.83V19.37C25.3501 19.11 25.0901 18.85 24.8301 18.85Z" fill="white"/>
<path d="M6.6299 9.75H1.1699C0.909902 9.75 0.649902 10.01 0.649902 10.27V15.73C0.649902 15.99 0.909902 16.25 1.1699 16.25H6.6299C6.8899 16.25 7.1499 15.99 7.1499 15.73V10.27C7.1499 10.01 6.8899 9.75 6.6299 9.75Z" fill="white"/>
<path d="M24.8301 9.75H19.3701C19.1101 9.75 18.8501 10.01 18.8501 10.27V15.73C18.8501 15.99 19.1101 16.25 19.3701 16.25H24.8301C25.0901 16.25 25.3501 15.99 25.3501 15.73V10.27C25.3501 10.01 25.0901 9.75 24.8301 9.75Z" fill="white"/>
<path d="M6.6299 18.85H1.1699C0.909902 18.85 0.649902 19.11 0.649902 19.37V24.83C0.649902 25.09 0.909902 25.35 1.1699 25.35H6.6299C6.8899 25.35 7.1499 25.09 7.1499 24.83V19.37C7.1499 19.11 6.8899 18.85 6.6299 18.85Z" fill="white"/>
<path d="M6.6299 0.650024H1.1699C0.909902 0.650024 0.649902 0.910024 0.649902 1.17002V6.63002C0.649902 6.89002 0.909902 7.15002 1.1699 7.15002H6.6299C6.8899 7.15002 7.1499 6.89002 7.1499 6.63002V1.17002C7.1499 0.910024 6.8899 0.650024 6.6299 0.650024Z" fill="white"/>
<path d="M15.73 0.650024H10.27C10.01 0.650024 9.75 0.910024 9.75 1.17002V6.63002C9.75 6.89002 10.01 7.15002 10.27 7.15002H15.73C15.99 7.15002 16.25 6.89002 16.25 6.63002V1.17002C16.25 0.910024 15.99 0.650024 15.73 0.650024Z" fill="white"/>
<path d="M24.8301 0.650024H19.3701C19.1101 0.650024 18.8501 0.910024 18.8501 1.17002V6.63002C18.8501 6.89002 19.1101 7.15002 19.3701 7.15002H24.8301C25.0901 7.15002 25.3501 6.89002 25.3501 6.63002V1.17002C25.3501 0.910024 25.0901 0.650024 24.8301 0.650024Z" fill="white"/>
<path d="M15.73 18.85H10.27C10.01 18.85 9.75 19.11 9.75 19.37V24.83C9.75 25.09 10.01 25.35 10.27 25.35H15.73C15.99 25.35 16.25 25.09 16.25 24.83V19.37C16.25 19.11 15.99 18.85 15.73 18.85Z" fill="white"/>
</svg>
