<?xml version="1.0" encoding="utf-8"?>
<!-- Generator: Adobe Illustrator 25.4.1, SVG Export Plug-In . SVG Version: 6.00 Build 0)  -->
<svg width="18" version="1.1" id="Layer_1" xmlns="http://www.w3.org/2000/svg" xmlns:xlink="http://www.w3.org/1999/xlink" x="0px" y="0px"
	 viewBox="0 0 24 24" style="enable-background:new 0 0 24 24;" xml:space="preserve">
<style type="text/css">
	.st0{fill:#FFFFFF;}
</style>
<g>
	<path class="st0" d="M10.2,2L9.7,4.5C9.3,4.7,8.8,4.8,8.4,5.1L6.3,3.6L3.6,6.3l1.5,2.1C4.8,8.8,4.7,9.3,4.5,9.7L2,10.2V14l2.5,0.5
		c0.1,0.4,0.3,0.9,0.5,1.3l-1.5,2.1l2.7,2.7l2.1-1.5c0.4,0.2,0.8,0.4,1.3,0.5l0.5,2.5H14l0.5-2.5c0.4-0.1,0.9-0.3,1.3-0.5l2.1,1.5
		l2.7-2.7l-1.5-2.1c0.2-0.4,0.4-0.8,0.5-1.3l2.5-0.5v-3.8l-2.5-0.5c-0.1-0.4-0.3-0.9-0.5-1.3l1.5-2.1l-2.7-2.7l-2.1,1.5
		c-0.4-0.2-0.8-0.4-1.3-0.5L14,2H10.2z M12.1,7.5c2.5,0,4.6,2,4.6,4.6c0,2.5-2,4.6-4.6,4.6c-2.5,0-4.6-2-4.6-4.6
		C7.5,9.6,9.6,7.5,12.1,7.5z"/>
</g>
</svg>
