<?xml version="1.0" encoding="utf-8"?>
<!-- Generator: Adobe Illustrator 25.4.1, SVG Export Plug-In . SVG Version: 6.00 Build 0)  -->
<svg width="18" version="1.1" id="Layer_1" xmlns="http://www.w3.org/2000/svg" xmlns:xlink="http://www.w3.org/1999/xlink" x="0px" y="0px"
	 viewBox="0 0 20 20" style="enable-background:new 0 0 20 20;" xml:space="preserve">
<style type="text/css">
	.st0{fill:#FFFFFF;enable-background:new    ;}
</style>
<path class="st0" d="M10,20c2.7,0,5.2-1.1,7.1-2.9c1.9-1.9,2.9-4.4,2.9-7.1c0-2.7-1.1-5.2-2.9-7.1C15.2,1.1,12.7,0,10,0
	C7.3,0,4.8,1.1,2.9,2.9C1.1,4.8,0,7.3,0,10c0,2.7,1.1,5.2,2.9,7.1C4.8,18.9,7.3,20,10,20L10,20z M9,2v9.5L6.1,8.6L4.8,10l4.6,4.6
	c0.4,0.4,1,0.4,1.4,0l4.6-4.6l-1.4-1.4L11,11.5V2c2.7,0.3,5.1,2,6.3,4.5c1.2,2.5,1,5.4-0.5,7.8c-1.5,2.3-4.1,3.8-6.8,3.8
	c-2.8,0-5.3-1.4-6.8-3.8S1.5,9,2.7,6.5C3.9,4,6.3,2.3,9,2L9,2z"/>
</svg>
