<svg width="18" height="20" viewBox="0 0 20 20" fill="none" xmlns="http://www.w3.org/2000/svg">
<path fill-rule="evenodd" clip-rule="evenodd" d="M5.20425 4.2446H8.56045C8.82295 4.2446 9.04013 4.46178 9.04013 4.72428V8.08048C9.04013 8.50548 8.52529 8.72032 8.22529 8.41798L7.19091 7.3836C6.53153 8.09454 6.16357 9.03204 6.16357 9.9984C6.16357 11.907 7.25029 12.975 8.86817 13.664C8.97442 13.7015 9.04083 13.7749 9.04083 13.8882V15.3788C9.04083 15.5562 8.89239 15.6531 8.75021 15.6195C6.08841 14.9749 4.24561 12.7641 4.24561 9.99766C4.24561 8.52812 4.82921 7.09926 5.83545 6.03446L4.86669 5.06102C4.56669 4.75868 4.77919 4.24384 5.20419 4.24384L5.20425 4.2446Z" fill="white"/>
<path fill-rule="evenodd" clip-rule="evenodd" d="M11.251 4.4406C13.9034 5.07576 15.7556 7.2656 15.7556 10.0296C15.7556 11.4921 15.1767 12.907 14.1658 13.9718L15.1322 14.9382C15.4345 15.2405 15.2197 15.7554 14.797 15.7554H11.4384C11.1759 15.7554 10.9588 15.5382 10.9588 15.2757V11.9195C10.9588 11.4945 11.4759 11.2797 11.7759 11.582L12.8033 12.6093C13.4627 11.9031 13.8377 10.9679 13.8377 10.0015C13.8377 8.09294 12.7486 7.02494 11.1307 6.33594C11.0268 6.30079 10.958 6.225 10.958 6.11172V4.67344C10.958 4.525 11.133 4.42578 11.251 4.4422L11.251 4.4406Z" fill="white"/>
</svg>
