<svg width="15" height="15" viewBox="0 0 15 15" fill="none" xmlns="http://www.w3.org/2000/svg">
<path d="M7.50006 14.5836C9.37873 14.5836 11.1802 13.8372 12.5084 12.5084C13.8372 11.1802 14.5836 9.37867 14.5836 7.5C14.5836 5.62133 13.8372 3.81984 12.5084 2.49163C11.1803 1.16284 9.37873 0.416443 7.50006 0.416443C5.62139 0.416443 3.8199 1.16284 2.49169 2.49163C1.16291 3.81976 0.416504 5.62133 0.416504 7.5C0.419824 9.37799 1.1669 11.1776 2.49509 12.505C3.82256 13.8331 5.62224 14.5802 7.50006 14.5836ZM7.50006 3.95856C7.78628 3.95856 8.04459 4.13121 8.15417 4.39551C8.26441 4.66048 8.20331 4.96529 8.00077 5.16782C7.79824 5.37036 7.49343 5.4308 7.22913 5.32122C6.96417 5.21165 6.79151 4.95332 6.79151 4.66645C6.79151 4.27531 7.10893 3.95856 7.50006 3.95856ZM6.7915 6.79212C6.7915 6.40099 7.10893 6.08356 7.50006 6.08356C7.8912 6.08356 8.20862 6.40032 8.20862 6.79146V10.3336C8.20862 10.7247 7.8912 11.0415 7.50006 11.0415C7.10893 11.0415 6.7915 10.7247 6.7915 10.3336V6.79212Z" fill="#ffffff"/>
</svg>
