<svg id="Layer_1" data-name="Layer 1" xmlns="http://www.w3.org/2000/svg" viewBox="0 0 814.29 228.45"><defs><style>.cls-1{fill:#fff;}</style></defs><path class="cls-1" d="M292.64,613.29a17.92,17.92,0,0,1-8.85-2.25,18.54,18.54,0,0,1-6.45-6.3,17.92,17.92,0,0,1-2.25-8.85,17.63,17.63,0,0,1,2.25-8.7,18.12,18.12,0,0,1,6.45-6.45,17.52,17.52,0,0,1,17.7,0,18.12,18.12,0,0,1,6.45,6.45,17,17,0,0,1,0,17.4,18.12,18.12,0,0,1-6.45,6.45A17.92,17.92,0,0,1,292.64,613.29Z" transform="translate(-92.45 -385.88)"/><path class="cls-1" d="M321.73,611.19v-77.4h31l.75,9.9q10.2-12.15,28.5-12.15,10.2,0,17.25,3.3a27.08,27.08,0,0,1,11.55,9.9A34.5,34.5,0,0,1,424,535a48.9,48.9,0,0,1,35.7-.15,26.72,26.72,0,0,1,16.65,25.5v50.85h-33V565q0-5.7-3.6-8.85a12.62,12.62,0,0,0-8.85-3.15,16.12,16.12,0,0,0-7.8,2,14.48,14.48,0,0,0-5.7,5.55,15.88,15.88,0,0,0-1.95,8v42.75h-33V565a11.28,11.28,0,0,0-1.65-6,10.37,10.37,0,0,0-4.2-4.35,11.56,11.56,0,0,0-6.15-1.65,16.73,16.73,0,0,0-8.1,2,14.8,14.8,0,0,0-5.7,5.4,16.19,16.19,0,0,0-1.95,8.1v42.75Z" transform="translate(-92.45 -385.88)"/><path class="cls-1" d="M539.53,614a72.05,72.05,0,0,1-26.7-4.8A45.62,45.62,0,0,1,493.48,595a35,35,0,0,1-7.2-22q0-13.05,7.2-22.5a44,44,0,0,1,19.35-14.25,74.89,74.89,0,0,1,53.55,0,44,44,0,0,1,19.2,14.4,35.82,35.82,0,0,1,7.2,22.35,34.89,34.89,0,0,1-7.35,22,45.62,45.62,0,0,1-19.35,14.25A71.63,71.63,0,0,1,539.53,614Zm-.15-21.45a19.67,19.67,0,0,0,10-2.7,20.3,20.3,0,0,0,7.35-7.2,19.67,19.67,0,0,0,2.7-10.05,19.4,19.4,0,0,0-2.7-9.9,19.93,19.93,0,0,0-7.35-7.35,20.05,20.05,0,0,0-20.1,0,20.3,20.3,0,0,0-7.2,7.35,19.73,19.73,0,0,0-2.55,9.9,19.37,19.37,0,0,0,9.75,17.25A19.67,19.67,0,0,0,539.38,592.59Z" transform="translate(-92.45 -385.88)"/><path class="cls-1" d="M602.68,611.19v-77.4h30.9l1.2,10.65q10.2-12.75,29.7-12.75a45.46,45.46,0,0,1,17.85,3.3,26.76,26.76,0,0,1,12.45,9.6,25,25,0,0,1,4.65,15.3v51.3h-33V566a11.6,11.6,0,0,0-3.6-9q-3.6-3.3-9.9-3.3a19.52,19.52,0,0,0-8.85,2,15,15,0,0,0-6.15,5.55,16.09,16.09,0,0,0-2.25,8.7v41.25Z" transform="translate(-92.45 -385.88)"/><path class="cls-1" d="M812.88,533.79,775.08,565l41.1,46.2H776l-16.2-20.85-7-9.3-8,6v24.15h-33V504.39h33v39.15l-.3,16.35L758.13,547l15-13.2Z" transform="translate(-92.45 -385.88)"/><path class="cls-1" d="M858.73,614.34q-43.5,0-47-26.4l31.35-.75a10.9,10.9,0,0,0,4.8,7.2q3.9,2.25,12.3,2.25,8.1,0,12-1.8,3.9-2,3.9-5.55a4.85,4.85,0,0,0-2.7-4.5q-2.55-1.65-7.8-2.1L847.93,581q-17.4-1.65-25.65-7.5a19.26,19.26,0,0,1-8.1-16.35q0-12.3,11-19.2,11.1-7.05,33.3-7,20.55,0,31.8,6.15,11.4,6,13.5,17.85l-30.6.75a8.26,8.26,0,0,0-4.5-6q-3.45-1.8-11.4-1.8a25.83,25.83,0,0,0-10.2,1.65q-3.6,1.5-3.6,4.5a4.73,4.73,0,0,0,2.7,4.35,26.31,26.31,0,0,0,8.55,2l17.25,1.5q34.8,3,34.8,24.3,0,14.55-12.3,21.45T858.73,614.34Z" transform="translate(-92.45 -385.88)"/><path class="cls-1" d="M125.45,503.93V461.18c0-9.3,6.6-15.45,15.75-15.45a11.76,11.76,0,0,1,12,12v46.2h33V461.18a15.06,15.06,0,0,1,15.45-15.45c6.9,0,12.45,4.2,12.45,12v46.2h33V453.08c0-18.75-14.7-28.8-34.35-28.8-13.35,0-24,4.5-31.2,13.2-5.7-8.7-15-13.2-28.8-13.2-12.15,0-21.75,4.05-28.5,12.15l-.75-9.9h-31v77.4Z" transform="translate(-92.45 -385.88)"/><path class="cls-1" d="M310.55,506.63c21.6,0,41.1-7.35,48.75-25.2l-31.65-1.65c-3.3,5.55-8.85,8.25-17.25,8.25-12.3,0-19.2-5.55-20.85-15.9h72.3v-3.9c0-27.45-22.5-44.1-53-44.1-28.65,0-52.2,15.15-52.2,41.1C256.7,491.93,280.1,506.63,310.55,506.63ZM289.7,456.68c1.95-9.45,8.4-14.1,19.35-14.1s17.25,4.65,18.75,14.1Z" transform="translate(-92.45 -385.88)"/><path class="cls-1" d="M444,434c-7.5-7-17.55-10.35-30-10.35-23.1,0-43.65,14.25-43.65,41.55,0,26.1,17.25,41.85,44.25,41.85,14.1,0,24.45-4.5,31.2-13.2l.9,10.05H477V397.13H444Zm-20.4,50.55c-10.35,0-19.95-4.8-19.95-19.8,0-14.7,9.75-20.1,20.1-20.1,12.6,0,21,6.9,21,20.1C444.7,478.13,436.3,484.58,423.55,484.58Z" transform="translate(-92.45 -385.88)"/><path class="cls-1" d="M506.26,418.73c9.45,0,16.5-6.75,16.5-16.65,0-9.3-7-16.2-16.5-16.2s-16.5,6.9-16.5,16.2C489.76,412,496.81,418.73,506.26,418.73Zm16.5,85.2v-77.4h-33v77.4Z" transform="translate(-92.45 -385.88)"/><path class="cls-1" d="M635.5,503.93c-2.7-4.95-3.6-12-3.6-19.5V453.68c0-19.05-11.85-29.85-46.95-29.85-33,0-46.05,9.3-48.3,27.15l31.5,1.2c.75-9.45,7.05-11.85,16.05-11.85,10.65,0,14.7,3,14.7,9.75v1.35c0,2.55-.9,3.6-9.6,4.5l-24.3,2.4c-25.8,2.55-32.55,11.1-32.55,24.75,0,16.05,10.95,24,34.8,24,15.3,0,26.1-3.45,33.45-10.5a44.69,44.69,0,0,0,2.1,7.35Zm-59.4-14.4c-8,0-11.55-2.85-11.55-8.4,0-5.25,2.7-8.4,14.4-9.75l18.6-2.25a12,12,0,0,0,2.25-.45v4.8C599.8,483.68,589.15,489.53,576.1,489.53Z" transform="translate(-92.45 -385.88)"/></svg>