<svg width="129" height="72" viewBox="0 0 129 72" fill="none" xmlns="http://www.w3.org/2000/svg">
<path d="M76.7186 35.9398C77.2073 35.9398 77.6024 35.5448 77.6024 35.0561C77.6024 34.8461 77.5299 34.6536 77.4074 34.5036L69.4362 20.6985C69.2787 20.4247 68.9874 20.256 68.6712 20.256C68.3562 20.256 68.0637 20.4247 67.9062 20.6985L63.526 28.2847H53.7436C53.2549 28.2847 52.8599 28.6797 52.8599 29.1684V43.2884C52.8599 43.7772 53.2549 44.1722 53.7436 44.1722H58.9599C59.4537 48.5146 63.1375 51.8436 67.5663 51.8436C72.3439 51.8436 76.2313 47.9572 76.2313 43.1799C76.2313 40.1561 74.6725 37.4899 72.3177 35.9399H76.7078H76.719L76.7186 35.9398ZM54.6274 42.4048V30.0522H62.5061L59.8724 34.6147C59.7149 34.8885 59.7149 35.2247 59.8736 35.4985C60.0311 35.7722 60.3224 35.9397 60.6386 35.9397H66.6498V42.4047L54.6274 42.4048ZM74.4636 43.1811C74.4636 46.9836 71.3698 50.0787 67.566 50.0787C64.1096 50.0787 61.2236 47.5286 60.7423 44.1737H67.5336C68.0224 44.1737 68.4174 43.7787 68.4174 43.29L68.4161 36.3412C71.8187 36.7624 74.4635 39.665 74.4635 43.1812L74.4636 43.1811ZM62.1685 34.1724L68.6709 22.9075L75.1772 34.1737L62.1685 34.1724Z" fill="#282828"/>
<rect x="1.5" y="1.5" width="126" height="69" rx="3.5" stroke="#282828" stroke-width="3"/>
</svg>
