<svg width="24" height="24" viewBox="0 0 24 24" fill="none" xmlns="http://www.w3.org/2000/svg">
<g opacity="0.2">
<path d="M10.1599 2L9.70239 4.52C9.25801 4.65969 8.82678 4.84062 8.41988 5.05251L6.30488 3.59751L3.59 6.31239L5.05251 8.41988C4.8397 8.82769 4.66064 9.25614 4.52 9.70239L2 10.1599V13.9999L4.52 14.4574C4.66063 14.9046 4.84626 15.3311 5.06 15.7399L3.59 17.8474L6.30488 20.5622L8.41237 19.1072C8.82111 19.321 9.25518 19.4991 9.70237 19.6398L10.1599 22.1598H13.9999L14.4573 19.6398C14.9036 19.4991 15.332 19.3201 15.7399 19.1072L17.8473 20.5622L20.5622 17.8474L19.0997 15.7399C19.3116 15.333 19.4925 14.9093 19.6322 14.4649L22.1597 13.9999V10.1599L19.6322 9.70239C19.4925 9.25894 19.3182 8.83333 19.1072 8.42739L20.5622 6.31239L17.8473 3.59751L15.7399 5.05251C15.332 4.8397 14.9036 4.66064 14.4573 4.52L13.9999 2H10.1599ZM12.0799 7.52C14.598 7.52 16.6399 9.56187 16.6399 12.08C16.6399 14.5981 14.598 16.64 12.0799 16.64C9.56175 16.64 7.51988 14.5981 7.51988 12.08C7.51988 9.56187 9.56175 7.52 12.0799 7.52Z" fill="white"/>
</g>
</svg>
