<svg width="20" height="20" viewBox="0 0 20 20" fill="none" xmlns="http://www.w3.org/2000/svg">
<path opacity="0.2" d="M10 20C12.6525 20 15.1951 18.9466 17.0716 17.0716C18.9466 15.1953 20 12.6526 20 10C20 7.34743 18.9466 4.80486 17.0716 2.92841C15.1953 1.05342 12.6526 -1.21126e-06 10 -1.44315e-06C7.34743 -1.67505e-06 4.80485 1.05341 2.92841 2.92841C1.05341 4.80466 -3.1583e-06 7.34743 -3.3902e-06 10C-3.62209e-06 12.6526 1.05341 15.1951 2.92841 17.0716C4.80466 18.9466 7.34743 20 10 20V20ZM9.03226 1.99715L9.03226 11.5358L6.12904 8.63262L4.76185 9.9998L9.31571 14.555C9.69374 14.9317 10.3061 14.9317 10.6842 14.555L15.238 9.9998L13.8708 8.63262L10.9676 11.5358L10.9676 1.99715C13.7133 2.32854 16.0973 4.04479 17.2844 6.54359C18.4714 9.04107 18.2949 11.9745 16.8169 14.312C15.3388 16.6494 12.7656 18.0671 9.9998 18.0671C7.23401 18.0671 4.66079 16.6495 3.18273 14.312C1.70467 11.9745 1.52825 9.041 2.71525 6.54359C3.90224 4.04486 6.2862 2.32877 9.032 1.99715L9.03226 1.99715Z" fill="white"/>
</svg>
