<svg id="Layer_1" data-name="Layer 1" xmlns="http://www.w3.org/2000/svg" viewBox="0 0 129 72"><defs><style>.cls-1{fill:none;stroke:#282828;stroke-width:3px;}</style></defs><path fill="#FFF" d="M57.27,45h4.52a.81.81,0,0,0,.57-.23.84.84,0,0,0,.24-.58V42.43a1.08,1.08,0,0,1,.82-1.08,1,1,0,0,1,1.17,1v1.81a.84.84,0,0,0,.24.58.81.81,0,0,0,.57.23h2.72a1.72,1.72,0,0,0,1.71-1.71V40.43h1a2.63,2.63,0,0,0,2.59-3,2.7,2.7,0,0,0-2.69-2.19h-.89V32.38a1.72,1.72,0,0,0-1.72-1.71H65.31v-.9a2.7,2.7,0,0,0-2.18-2.69,2.63,2.63,0,0,0-3.06,2.59v1h-2.8a1.72,1.72,0,0,0-1.72,1.71V36a.8.8,0,0,0,.24.58.82.82,0,0,0,.57.24h1.71a1.06,1.06,0,0,1,1.08.82,1,1,0,0,1-.22.81,1.06,1.06,0,0,1-.76.36H56.36a.81.81,0,0,0-.81.81v3.62A1.72,1.72,0,0,0,57.27,45Zm-.09-4.52h1a2.63,2.63,0,0,0,2.59-3,2.7,2.7,0,0,0-2.69-2.19h-.89V32.38a.09.09,0,0,1,.09-.09h3.61a.82.82,0,0,0,.58-.23.84.84,0,0,0,.24-.58V29.67a1,1,0,0,1,.35-.76,1,1,0,0,1,.81-.22,1.08,1.08,0,0,1,.83,1.08v1.71a.81.81,0,0,0,.23.57.8.8,0,0,0,.58.24h3.62l.06,0a.07.07,0,0,1,0,.06V36a.8.8,0,0,0,.24.58.82.82,0,0,0,.57.24h1.71a1.06,1.06,0,0,1,1.08.82,1,1,0,0,1-.22.81,1,1,0,0,1-.76.35H69a.82.82,0,0,0-.81.82v3.62a.09.09,0,0,1-.09.09h-1.9v-1a2.62,2.62,0,0,0-3.06-2.58A2.69,2.69,0,0,0,61,42.43v.9h-3.7a.09.09,0,0,1-.07,0,.07.07,0,0,1,0-.06Z"/><rect class="cls-1" x="1.5" y="1.5" width="126" height="69" rx="3.5"/></svg>