<svg id="Layer_1" data-name="Layer 1" xmlns="http://www.w3.org/2000/svg" viewBox="0 0 129 72"><defs><style>.cls-1{fill:none;stroke:#282828;stroke-width:3px;}</style></defs><path fill="#FFF" d="M66.48,27.59a.92.92,0,0,0-.86.7L61.57,43.23a1,1,0,0,0,.09.71.9.9,0,0,0,.57.44.89.89,0,0,0,.71-.09.9.9,0,0,0,.44-.57l4.05-14.94a.94.94,0,0,0-.17-.84.89.89,0,0,0-.78-.35Zm-6.75,1.56a.9.9,0,0,0-.48.21l-7.47,5.91a.93.93,0,0,0,0,1.47l7.47,5.91a.9.9,0,0,0,.69.2.94.94,0,0,0,.63-.35,1,1,0,0,0,.2-.69,1,1,0,0,0-.36-.63L53.87,36l6.54-5.18a.94.94,0,0,0-.68-1.68Zm9.32,0a.93.93,0,0,0-.8.68,1,1,0,0,0,.34,1L75.13,36l-6.54,5.17a1,1,0,0,0-.36.63,1,1,0,0,0,.2.69.94.94,0,0,0,.63.35.9.9,0,0,0,.69-.2l7.47-5.91a.93.93,0,0,0,0-1.47l-7.47-5.91a.93.93,0,0,0-.7-.21Z"/><rect class="cls-1" x="1.5" y="1.5" width="126" height="69" rx="3.5"/></svg>