<svg id="Layer_1" data-name="Layer 1" xmlns="http://www.w3.org/2000/svg" viewBox="0 0 129 72"><defs><style>.cls-1{fill:none;stroke:#282828;stroke-width:3px;}</style></defs><path fill="#FFF" d="M74.36,35H70.55a3.12,3.12,0,0,0-5.87,0h-10a1,1,0,0,0,0,2.08h10a3.12,3.12,0,0,0,5.87,0h3.81a1,1,0,1,0,0-2.08Z"/><path fill="#FFF" d="M54.64,29.25H59a3.11,3.11,0,0,0,5.87,0h9.52a1,1,0,1,0,0-2.07H64.84a3.11,3.11,0,0,0-5.87,0H54.64a1,1,0,1,0,0,2.07Z"/><path fill="#FFF" d="M74.36,42.75H64.84a3.11,3.11,0,0,0-5.87,0H54.64a1,1,0,1,0,0,2.07H59a3.11,3.11,0,0,0,5.87,0h9.52a1,1,0,1,0,0-2.07Z"/><rect class="cls-1" x="1.5" y="1.5" width="126" height="69" rx="3.5"/></svg>