<svg id="Layer_1" data-name="Layer 1" xmlns="http://www.w3.org/2000/svg" viewBox="0 0 129 72"><defs><style>.cls-1{fill:none;stroke:#282828;stroke-width:3px;}</style></defs><path fill="#FFF" d="M71.13,28.7H66.2l-2.65-2.32H56.72a2.5,2.5,0,0,0-2.5,2.51V42a3.64,3.64,0,0,0,3.65,3.65H71.13A3.64,3.64,0,0,0,74.78,42V32.35a3.65,3.65,0,0,0-3.65-3.65Zm-14.92.19a.51.51,0,0,1,.51-.52H62.8l1.51,1.33L62.8,31H56.21ZM72.79,42a1.65,1.65,0,0,1-.48,1.17,1.68,1.68,0,0,1-1.18.49H57.87A1.66,1.66,0,0,1,56.21,42V33h7.34l2.65-2.32h4.93a1.68,1.68,0,0,1,1.18.49,1.65,1.65,0,0,1,.48,1.17Z"/><rect class="cls-1" x="1.5" y="1.5" width="126" height="69" rx="3.5"/></svg>