<svg id="Layer_1" data-name="Layer 1" xmlns="http://www.w3.org/2000/svg" viewBox="0 0 129 72"><defs><style>.cls-1{fill:none;stroke:#282828;stroke-width:3px;}</style></defs><rect class="cls-1" x="1.5" y="1.5" width="126" height="69" rx="3.5"/><path fill="#FFF" d="M64.22,26.44a7.5,7.5,0,0,0-4.89-2.21,6.17,6.17,0,0,0-6.6,6.61,7.42,7.42,0,0,0,2.21,4.89l2.89,2.89a1,1,0,0,0,1.36-1.36L56.3,34.37a5.57,5.57,0,0,1-1.65-3.63,4.26,4.26,0,0,1,1.23-3.35,4.19,4.19,0,0,1,3.35-1.23,5.53,5.53,0,0,1,3.63,1.64l2.89,2.9a1,1,0,0,0,.69.3.93.93,0,0,0,.7-.28,1,1,0,0,0,0-1.39Z"/><path fill="#FFF" d="M76.27,41.18a7.42,7.42,0,0,0-2.21-4.89L71.17,33.4a1,1,0,0,0-1.34,0,1,1,0,0,0,0,1.34l2.89,2.89a5.52,5.52,0,0,1,1.65,3.62,4.25,4.25,0,0,1-4.58,4.59,5.54,5.54,0,0,1-3.63-1.65l-2.89-2.89a1,1,0,0,0-.69-.31,1,1,0,0,0-1,1,1,1,0,0,0,.31.69l2.89,2.89a7.42,7.42,0,0,0,4.89,2.21H70a6.17,6.17,0,0,0,6.24-6.6Z"/><path fill="#FFF" d="M59,30.5a1,1,0,0,0,0,1.36l9.64,9.64A1,1,0,0,0,70,40.14L60.36,30.5a1,1,0,0,0-1.37,0Z"/></svg>